<svg height="100px" width="120px" version="1.1" xmlns="http://www.w3.org/2000/svg" xmlns:xlink="http://www.w3.org/1999/xlink" x="0px" y="0px"
     viewBox="0 0 1000 1000" enable-background="new 0 0 1000 1000" xml:space="preserve">
<g><g transform="matrix(1 0 0 -1 0 1952)"><path class="socks-icon" d="M550.9,1870.1l0,36.6c0,38-38,31.7-38,31.7H314.5c-33.8,0-33.8-29.6-33.8-29.6l0.7-38.7L550.9,1870.1L550.9,1870.1L550.9,1870.1z M550.9,1481l0,354.6H280.8v-249.1c0,0,14.8-48.5-69.7-85.5l-149.9-66.5c114-81.3,124.5-259.6,124.5-259.6l161.8,61.2l-0.4,67.5C347.2,1303.6,337.7,1481,550.9,1481L550.9,1481z M35.3,1404.4c-14-1.4-41.8-81-12.1-151.7c29.7-55.9,66.1-89.9,130.9-84C135.1,1307.9,40.9,1411.8,35.3,1404.4L35.3,1404.4z M548.3,1446.1c-217.4,0-161-199.2-161-199.2C592.1,1318.7,548.3,1446.1,548.3,1446.1z M952,1734.3H753.6c-33.8,0-33.8-29.6-33.8-29.6l-0.7-37.3H990v35.2C990,1740.6,952,1734.3,952,1734.3L952,1734.3z M719.8,1383.9c0,0,14.8-48.5-69.7-85.5l-149.9-66.5c114-81.3,124.5-259.6,124.5-259.6l161.8,61.2l-0.4,67.5c0,0-9.5,178.7,203.7,178.7v353.2H719.8L719.8,1383.9L719.8,1383.9L719.8,1383.9z M474.3,1201.7c-14-1.4-41.8-81-12.1-151.7c29.7-55.9,66.1-89.9,130.9-84C574.2,1105.3,480,1209.2,474.3,1201.7L474.3,1201.7z M825,1044.3c190.7,63.3,161,199.2,161,199.2C768.6,1243.4,825,1044.3,825,1044.3z"/></g></g>
</svg>